<svg width="28" height="28" viewBox="0 0 28 28" fill="none" xmlns="http://www.w3.org/2000/svg">
<path d="M25.375 14C25.375 11.7502 24.7079 9.551 23.458 7.68039C22.2081 5.80978 20.4315 4.35182 18.353 3.49088C16.2745 2.62993 13.9874 2.40467 11.7809 2.84357C9.57432 3.28248 7.54749 4.36584 5.95667 5.95667C4.36584 7.54749 3.28248 9.57432 2.84357 11.7809C2.40467 13.9874 2.62993 16.2745 3.49088 18.353C4.35182 20.4315 5.80978 22.2081 7.68039 23.458C9.551 24.7079 11.7502 25.375 14 25.375C17.016 25.3721 19.9075 24.1727 22.0401 22.0401C24.1727 19.9075 25.3721 17.016 25.375 14ZM14.875 23.5813V16.625H17.5C17.7321 16.625 17.9546 16.5328 18.1187 16.3687C18.2828 16.2046 18.375 15.9821 18.375 15.75C18.375 15.5179 18.2828 15.2954 18.1187 15.1313C17.9546 14.9672 17.7321 14.875 17.5 14.875H14.875V12.25C14.875 11.7859 15.0594 11.3408 15.3876 11.0126C15.7158 10.6844 16.1609 10.5 16.625 10.5H18.375C18.6071 10.5 18.8296 10.4078 18.9937 10.2437C19.1578 10.0796 19.25 9.85707 19.25 9.62501C19.25 9.39294 19.1578 9.17038 18.9937 9.00629C18.8296 8.84219 18.6071 8.75001 18.375 8.75001H16.625C15.6976 8.75289 14.8091 9.12257 14.1533 9.77832C13.4976 10.4341 13.1279 11.3226 13.125 12.25V14.875H10.5C10.2679 14.875 10.0454 14.9672 9.88129 15.1313C9.71719 15.2954 9.62501 15.5179 9.62501 15.75C9.62501 15.9821 9.71719 16.2046 9.88129 16.3687C10.0454 16.5328 10.2679 16.625 10.5 16.625H13.125V23.5813C10.6584 23.3561 8.3735 22.1887 6.74564 20.3218C5.11778 18.455 4.27227 16.0325 4.38497 13.5582C4.49768 11.0838 5.55992 8.7482 7.35075 7.03709C9.14157 5.32598 11.5231 4.37111 14 4.37111C16.4769 4.37111 18.8584 5.32598 20.6493 7.03709C22.4401 8.7482 23.5023 11.0838 23.615 13.5582C23.7277 16.0325 22.8822 18.455 21.2544 20.3218C19.6265 22.1887 17.3416 23.3561 14.875 23.5813Z" fill="white"/>
</svg>
