<svg id="logo-mob" width="100" height="16" viewBox="0 0 100 16" fill="none" xmlns="http://www.w3.org/2000/svg">
    <g id="logo">
        <g id="LOGO">
            <path d="M0 14V0H2.49446L8.65615 4.54266H8.74922L14.9109 0H17.4054V14H14.4269V3.91608L10.2012 6.89231V14H7.22276V6.89231L2.97846 3.91608V14H0Z" fill="#0A224A"/>
            <path d="M20.2013 14V0H23.1798V14H20.2013Z" fill="#0A224A"/>
            <path d="M25.9684 14V0H28.9841L38.4035 10.0643V0H41.382V14H38.3663L28.9469 3.91608V14H25.9684Z" fill="#0A224A"/>
            <path d="M44.17 14V0H47.1485V14H44.17Z" fill="#0A224A"/>
            <path d="M49.9372 14V0H52.4316L58.5933 4.54266H58.6864L64.8481 0H67.3425V14H64.3641V3.91608L60.1384 6.89231V14H57.1599V6.89231L52.9156 3.91608V14H49.9372Z" fill="#0A224A"/>
            <path d="M69.0216 14L75.0157 0H79.6137L85.6079 14H82.3688L81.1029 11.0434H73.5265L72.2606 14H69.0216ZM74.6062 8.4979H80.0232L77.4357 2.44755H77.1937L74.6062 8.4979Z" fill="#0A224A"/>
            <path d="M87.2857 14V0H90.2642V11.4545H100V14H87.2857Z" fill="#0A224A"/>
        </g>
    </g>
</svg>
