<svg width="28" height="28" viewBox="0 0 28 28" fill="none" xmlns="http://www.w3.org/2000/svg">
<path d="M17.9812 13.2671L12.7312 9.76714C12.5984 9.68271 12.4458 9.63428 12.2886 9.62661C12.1314 9.61894 11.9748 9.65229 11.8344 9.72339C11.6945 9.79889 11.5778 9.91108 11.4969 10.0479C11.4159 10.1847 11.3738 10.341 11.375 10.5V17.4999C11.3738 17.6589 11.4159 17.8152 11.4969 17.952C11.5778 18.0888 11.6945 18.201 11.8344 18.2765C11.9634 18.3411 12.1057 18.3748 12.25 18.3749C12.4205 18.3731 12.5871 18.3239 12.7312 18.2328L17.9812 14.7328C18.1031 14.6532 18.2032 14.5446 18.2725 14.4166C18.3418 14.2887 18.3781 14.1455 18.3781 13.9999C18.3781 13.8544 18.3418 13.7112 18.2725 13.5833C18.2032 13.4553 18.1031 13.3467 17.9812 13.2671ZM13.125 15.8703V12.1296L15.925 13.9999L13.125 15.8703ZM25.6266 7.63433C25.526 7.23109 25.3292 6.85824 25.053 6.54773C24.7768 6.23723 24.4294 5.99833 24.0406 5.85152C20.3 4.40777 14.3281 4.4187 14 4.4187C13.6719 4.4187 7.7 4.40777 3.95938 5.85152C3.57059 5.99833 3.2232 6.23723 2.94699 6.54773C2.67077 6.85824 2.47397 7.23109 2.37344 7.63433C2.08906 8.71714 1.75 10.7078 1.75 13.9999C1.75 17.2921 2.08906 19.2828 2.37344 20.3656C2.47397 20.7688 2.67077 21.1417 2.94699 21.4522C3.2232 21.7627 3.57059 22.0016 3.95938 22.1484C7.54688 23.5374 13.1688 23.5812 13.9234 23.5812H14.0766C14.8312 23.5812 20.4531 23.5374 24.0406 22.1484C24.4294 22.0016 24.7768 21.7627 25.053 21.4522C25.3292 21.1417 25.526 20.7688 25.6266 20.3656C25.9109 19.2828 26.25 17.2921 26.25 13.9999C26.25 10.7078 25.9109 8.71714 25.6266 7.63433ZM23.9312 19.9281C23.8989 20.0604 23.8354 20.1831 23.746 20.2858C23.6565 20.3886 23.5438 20.4684 23.4172 20.5187C19.95 21.8531 14.0656 21.8312 14 21.8312H13.9891C13.9344 21.8312 8.05 21.8531 4.58281 20.5187C4.4562 20.4684 4.34346 20.3886 4.25402 20.2858C4.16459 20.1831 4.10106 20.0604 4.06875 19.9281C3.80625 18.9328 3.5 17.1062 3.5 13.9999C3.5 10.8937 3.80625 9.06714 4.06875 8.07183C4.10106 7.93949 4.16459 7.81681 4.25402 7.71406C4.34346 7.6113 4.4562 7.53146 4.58281 7.4812C7.91875 6.20152 13.5188 6.1687 13.9781 6.1687H14C14.0656 6.1687 19.95 6.14683 23.4172 7.4812C23.5438 7.53146 23.6565 7.6113 23.746 7.71406C23.8354 7.81681 23.8989 7.93949 23.9312 8.07183C24.1938 9.06714 24.5 10.8937 24.5 13.9999C24.5 17.1062 24.1938 18.9328 23.9312 19.9281Z" fill="white"/>
</svg>
